<mxfile host="Electron" modified="2023-09-29T21:38:32.644Z" agent="Mozilla/5.0 (Windows NT 10.0; Win64; x64) AppleWebKit/537.36 (KHTML, like Gecko) draw.io/22.0.0 Chrome/114.0.5735.289 Electron/25.8.3 Safari/537.36" etag="jGbwkIgAjzg9HdKuIKee" version="22.0.0" type="device">
  <diagram name="Страница — 1" id="p9_8uHeOw6eW0nFw__OP">
    <mxGraphModel dx="915" dy="683" grid="1" gridSize="10" guides="1" tooltips="1" connect="1" arrows="1" fold="1" page="1" pageScale="1" pageWidth="827" pageHeight="1169" math="0" shadow="0">
      <root>
        <mxCell id="0" />
        <mxCell id="1" parent="0" />
        <mxCell id="JnQPjBFPK7aEnsTbQPbo-1" value="Light for Home" style="swimlane;whiteSpace=wrap;html=1;fillColor=#fff2cc;strokeColor=#d6b656;" vertex="1" parent="1">
          <mxGeometry x="130" y="40" width="570" height="730" as="geometry" />
        </mxCell>
        <mxCell id="JnQPjBFPK7aEnsTbQPbo-3" value="Вивчення інформації про освітлення" style="ellipse;whiteSpace=wrap;html=1;fillColor=#d5e8d4;strokeColor=#82b366;" vertex="1" parent="JnQPjBFPK7aEnsTbQPbo-1">
          <mxGeometry x="40" y="40" width="200" height="70" as="geometry" />
        </mxCell>
        <mxCell id="JnQPjBFPK7aEnsTbQPbo-4" value="Створення плану освітлення" style="ellipse;whiteSpace=wrap;html=1;fillColor=#ffe6cc;strokeColor=#d79b00;" vertex="1" parent="JnQPjBFPK7aEnsTbQPbo-1">
          <mxGeometry x="40" y="160" width="200" height="70" as="geometry" />
        </mxCell>
        <mxCell id="JnQPjBFPK7aEnsTbQPbo-5" value="Налаштування та керування планом освітлення" style="ellipse;whiteSpace=wrap;html=1;fillColor=#ffe6cc;strokeColor=#d79b00;" vertex="1" parent="JnQPjBFPK7aEnsTbQPbo-1">
          <mxGeometry x="40" y="280" width="200" height="70" as="geometry" />
        </mxCell>
        <mxCell id="JnQPjBFPK7aEnsTbQPbo-6" value="Купити необхідне обладнання" style="ellipse;whiteSpace=wrap;html=1;fillColor=#ffe6cc;strokeColor=#d79b00;" vertex="1" parent="JnQPjBFPK7aEnsTbQPbo-1">
          <mxGeometry x="40" y="390" width="200" height="70" as="geometry" />
        </mxCell>
        <mxCell id="JnQPjBFPK7aEnsTbQPbo-7" value="Авторизація або реєстрація користувача" style="ellipse;whiteSpace=wrap;html=1;fillColor=#f8cecc;strokeColor=#b85450;" vertex="1" parent="JnQPjBFPK7aEnsTbQPbo-1">
          <mxGeometry x="250" y="220" width="200" height="70" as="geometry" />
        </mxCell>
        <mxCell id="JnQPjBFPK7aEnsTbQPbo-44" style="edgeStyle=orthogonalEdgeStyle;rounded=0;orthogonalLoop=1;jettySize=auto;html=1;entryX=0.5;entryY=0;entryDx=0;entryDy=0;" edge="1" parent="JnQPjBFPK7aEnsTbQPbo-1" source="JnQPjBFPK7aEnsTbQPbo-10" target="JnQPjBFPK7aEnsTbQPbo-11">
          <mxGeometry relative="1" as="geometry" />
        </mxCell>
        <mxCell id="JnQPjBFPK7aEnsTbQPbo-10" value="&lt;font style=&quot;vertical-align: inherit;&quot;&gt;&lt;font style=&quot;vertical-align: inherit;&quot;&gt;Скласти список необхідного обладнання&amp;nbsp;&lt;/font&gt;&lt;/font&gt;" style="ellipse;whiteSpace=wrap;html=1;fillColor=#e1d5e7;strokeColor=#9673a6;" vertex="1" parent="JnQPjBFPK7aEnsTbQPbo-1">
          <mxGeometry x="274" y="330" width="140" height="70" as="geometry" />
        </mxCell>
        <mxCell id="JnQPjBFPK7aEnsTbQPbo-11" value="Створити замовлення" style="ellipse;whiteSpace=wrap;html=1;fillColor=#e1d5e7;strokeColor=#9673a6;" vertex="1" parent="JnQPjBFPK7aEnsTbQPbo-1">
          <mxGeometry x="274" y="420" width="140" height="70" as="geometry" />
        </mxCell>
        <mxCell id="JnQPjBFPK7aEnsTbQPbo-12" value="Оплатити замовлення" style="ellipse;whiteSpace=wrap;html=1;fillColor=#e1d5e7;strokeColor=#9673a6;" vertex="1" parent="JnQPjBFPK7aEnsTbQPbo-1">
          <mxGeometry x="274" y="509.5" width="140" height="70" as="geometry" />
        </mxCell>
        <mxCell id="JnQPjBFPK7aEnsTbQPbo-18" value="" style="endArrow=classic;html=1;rounded=0;exitX=1;exitY=0.5;exitDx=0;exitDy=0;entryX=0.195;entryY=0.986;entryDx=0;entryDy=0;entryPerimeter=0;dashed=1;" edge="1" parent="JnQPjBFPK7aEnsTbQPbo-1" source="JnQPjBFPK7aEnsTbQPbo-5" target="JnQPjBFPK7aEnsTbQPbo-7">
          <mxGeometry relative="1" as="geometry">
            <mxPoint x="230" y="360" as="sourcePoint" />
            <mxPoint x="330" y="360" as="targetPoint" />
          </mxGeometry>
        </mxCell>
        <mxCell id="JnQPjBFPK7aEnsTbQPbo-19" value="Label" style="edgeLabel;resizable=0;html=1;align=center;verticalAlign=middle;" connectable="0" vertex="1" parent="JnQPjBFPK7aEnsTbQPbo-18">
          <mxGeometry relative="1" as="geometry" />
        </mxCell>
        <mxCell id="JnQPjBFPK7aEnsTbQPbo-20" value="include" style="edgeLabel;html=1;align=center;verticalAlign=middle;resizable=0;points=[];" vertex="1" connectable="0" parent="JnQPjBFPK7aEnsTbQPbo-18">
          <mxGeometry x="0.0798" y="-1" relative="1" as="geometry">
            <mxPoint as="offset" />
          </mxGeometry>
        </mxCell>
        <mxCell id="JnQPjBFPK7aEnsTbQPbo-22" value="" style="endArrow=classic;html=1;rounded=0;exitX=1;exitY=0.5;exitDx=0;exitDy=0;dashed=1;" edge="1" parent="JnQPjBFPK7aEnsTbQPbo-1" source="JnQPjBFPK7aEnsTbQPbo-4" target="JnQPjBFPK7aEnsTbQPbo-7">
          <mxGeometry relative="1" as="geometry">
            <mxPoint x="250" y="325" as="sourcePoint" />
            <mxPoint x="299" y="299" as="targetPoint" />
          </mxGeometry>
        </mxCell>
        <mxCell id="JnQPjBFPK7aEnsTbQPbo-23" value="Label" style="edgeLabel;resizable=0;html=1;align=center;verticalAlign=middle;" connectable="0" vertex="1" parent="JnQPjBFPK7aEnsTbQPbo-22">
          <mxGeometry relative="1" as="geometry" />
        </mxCell>
        <mxCell id="JnQPjBFPK7aEnsTbQPbo-24" value="include" style="edgeLabel;html=1;align=center;verticalAlign=middle;resizable=0;points=[];" vertex="1" connectable="0" parent="JnQPjBFPK7aEnsTbQPbo-22">
          <mxGeometry x="0.0798" y="-1" relative="1" as="geometry">
            <mxPoint as="offset" />
          </mxGeometry>
        </mxCell>
        <mxCell id="JnQPjBFPK7aEnsTbQPbo-25" value="" style="endArrow=classic;html=1;rounded=0;exitX=0.84;exitY=0.057;exitDx=0;exitDy=0;entryX=0.31;entryY=1;entryDx=0;entryDy=0;entryPerimeter=0;dashed=1;exitPerimeter=0;" edge="1" parent="JnQPjBFPK7aEnsTbQPbo-1" source="JnQPjBFPK7aEnsTbQPbo-6" target="JnQPjBFPK7aEnsTbQPbo-7">
          <mxGeometry relative="1" as="geometry">
            <mxPoint x="260" y="335" as="sourcePoint" />
            <mxPoint x="309" y="309" as="targetPoint" />
          </mxGeometry>
        </mxCell>
        <mxCell id="JnQPjBFPK7aEnsTbQPbo-26" value="Label" style="edgeLabel;resizable=0;html=1;align=center;verticalAlign=middle;" connectable="0" vertex="1" parent="JnQPjBFPK7aEnsTbQPbo-25">
          <mxGeometry relative="1" as="geometry" />
        </mxCell>
        <mxCell id="JnQPjBFPK7aEnsTbQPbo-27" value="include" style="edgeLabel;html=1;align=center;verticalAlign=middle;resizable=0;points=[];" vertex="1" connectable="0" parent="JnQPjBFPK7aEnsTbQPbo-25">
          <mxGeometry x="0.0798" y="-1" relative="1" as="geometry">
            <mxPoint as="offset" />
          </mxGeometry>
        </mxCell>
        <mxCell id="JnQPjBFPK7aEnsTbQPbo-28" value="" style="endArrow=classic;html=1;rounded=0;exitX=0.995;exitY=0.271;exitDx=0;exitDy=0;entryX=0.05;entryY=0.743;entryDx=0;entryDy=0;entryPerimeter=0;dashed=1;exitPerimeter=0;" edge="1" parent="JnQPjBFPK7aEnsTbQPbo-1" source="JnQPjBFPK7aEnsTbQPbo-6" target="JnQPjBFPK7aEnsTbQPbo-10">
          <mxGeometry relative="1" as="geometry">
            <mxPoint x="270" y="345" as="sourcePoint" />
            <mxPoint x="319" y="319" as="targetPoint" />
          </mxGeometry>
        </mxCell>
        <mxCell id="JnQPjBFPK7aEnsTbQPbo-29" value="Label" style="edgeLabel;resizable=0;html=1;align=center;verticalAlign=middle;" connectable="0" vertex="1" parent="JnQPjBFPK7aEnsTbQPbo-28">
          <mxGeometry relative="1" as="geometry" />
        </mxCell>
        <mxCell id="JnQPjBFPK7aEnsTbQPbo-30" value="include" style="edgeLabel;html=1;align=center;verticalAlign=middle;resizable=0;points=[];" vertex="1" connectable="0" parent="JnQPjBFPK7aEnsTbQPbo-28">
          <mxGeometry x="0.0798" y="-1" relative="1" as="geometry">
            <mxPoint as="offset" />
          </mxGeometry>
        </mxCell>
        <mxCell id="JnQPjBFPK7aEnsTbQPbo-31" value="" style="endArrow=classic;html=1;rounded=0;exitX=0.995;exitY=0.6;exitDx=0;exitDy=0;entryX=0;entryY=0.357;entryDx=0;entryDy=0;entryPerimeter=0;dashed=1;exitPerimeter=0;" edge="1" parent="JnQPjBFPK7aEnsTbQPbo-1" source="JnQPjBFPK7aEnsTbQPbo-6" target="JnQPjBFPK7aEnsTbQPbo-11">
          <mxGeometry relative="1" as="geometry">
            <mxPoint x="280" y="355" as="sourcePoint" />
            <mxPoint x="329" y="329" as="targetPoint" />
          </mxGeometry>
        </mxCell>
        <mxCell id="JnQPjBFPK7aEnsTbQPbo-32" value="Label" style="edgeLabel;resizable=0;html=1;align=center;verticalAlign=middle;" connectable="0" vertex="1" parent="JnQPjBFPK7aEnsTbQPbo-31">
          <mxGeometry relative="1" as="geometry" />
        </mxCell>
        <mxCell id="JnQPjBFPK7aEnsTbQPbo-33" value="include" style="edgeLabel;html=1;align=center;verticalAlign=middle;resizable=0;points=[];" vertex="1" connectable="0" parent="JnQPjBFPK7aEnsTbQPbo-31">
          <mxGeometry x="0.0798" y="-1" relative="1" as="geometry">
            <mxPoint as="offset" />
          </mxGeometry>
        </mxCell>
        <mxCell id="JnQPjBFPK7aEnsTbQPbo-34" value="" style="endArrow=classic;html=1;rounded=0;exitX=1;exitY=1;exitDx=0;exitDy=0;entryX=0.036;entryY=0.279;entryDx=0;entryDy=0;entryPerimeter=0;dashed=1;" edge="1" parent="JnQPjBFPK7aEnsTbQPbo-1" source="JnQPjBFPK7aEnsTbQPbo-6" target="JnQPjBFPK7aEnsTbQPbo-12">
          <mxGeometry relative="1" as="geometry">
            <mxPoint x="290" y="365" as="sourcePoint" />
            <mxPoint x="339" y="339" as="targetPoint" />
          </mxGeometry>
        </mxCell>
        <mxCell id="JnQPjBFPK7aEnsTbQPbo-35" value="Label" style="edgeLabel;resizable=0;html=1;align=center;verticalAlign=middle;" connectable="0" vertex="1" parent="JnQPjBFPK7aEnsTbQPbo-34">
          <mxGeometry relative="1" as="geometry" />
        </mxCell>
        <mxCell id="JnQPjBFPK7aEnsTbQPbo-36" value="include" style="edgeLabel;html=1;align=center;verticalAlign=middle;resizable=0;points=[];" vertex="1" connectable="0" parent="JnQPjBFPK7aEnsTbQPbo-34">
          <mxGeometry x="0.0798" y="-1" relative="1" as="geometry">
            <mxPoint as="offset" />
          </mxGeometry>
        </mxCell>
        <mxCell id="JnQPjBFPK7aEnsTbQPbo-41" value="Виконати&lt;br&gt;&amp;nbsp;замовлення" style="ellipse;whiteSpace=wrap;html=1;fillColor=#e1d5e7;strokeColor=#9673a6;" vertex="1" parent="JnQPjBFPK7aEnsTbQPbo-1">
          <mxGeometry x="274" y="600" width="140" height="70" as="geometry" />
        </mxCell>
        <mxCell id="JnQPjBFPK7aEnsTbQPbo-45" style="edgeStyle=orthogonalEdgeStyle;rounded=0;orthogonalLoop=1;jettySize=auto;html=1;" edge="1" parent="JnQPjBFPK7aEnsTbQPbo-1" source="JnQPjBFPK7aEnsTbQPbo-11">
          <mxGeometry relative="1" as="geometry">
            <mxPoint x="344" y="510" as="targetPoint" />
          </mxGeometry>
        </mxCell>
        <mxCell id="JnQPjBFPK7aEnsTbQPbo-50" value="Онлайн сплата" style="ellipse;whiteSpace=wrap;html=1;fillColor=#f0a30a;strokeColor=#BD7000;fontColor=#000000;" vertex="1" parent="JnQPjBFPK7aEnsTbQPbo-1">
          <mxGeometry x="450" y="460" width="100" height="40" as="geometry" />
        </mxCell>
        <mxCell id="JnQPjBFPK7aEnsTbQPbo-52" value="" style="endArrow=classic;html=1;rounded=0;exitX=0;exitY=1;exitDx=0;exitDy=0;entryX=0.96;entryY=0.298;entryDx=0;entryDy=0;entryPerimeter=0;dashed=1;" edge="1" parent="JnQPjBFPK7aEnsTbQPbo-1" source="JnQPjBFPK7aEnsTbQPbo-50" target="JnQPjBFPK7aEnsTbQPbo-12">
          <mxGeometry relative="1" as="geometry">
            <mxPoint x="221" y="460" as="sourcePoint" />
            <mxPoint x="289" y="539" as="targetPoint" />
          </mxGeometry>
        </mxCell>
        <mxCell id="JnQPjBFPK7aEnsTbQPbo-53" value="Label" style="edgeLabel;resizable=0;html=1;align=center;verticalAlign=middle;" connectable="0" vertex="1" parent="JnQPjBFPK7aEnsTbQPbo-52">
          <mxGeometry relative="1" as="geometry" />
        </mxCell>
        <mxCell id="JnQPjBFPK7aEnsTbQPbo-54" value="Extend" style="edgeLabel;html=1;align=center;verticalAlign=middle;resizable=0;points=[];" vertex="1" connectable="0" parent="JnQPjBFPK7aEnsTbQPbo-52">
          <mxGeometry x="0.0798" y="-1" relative="1" as="geometry">
            <mxPoint as="offset" />
          </mxGeometry>
        </mxCell>
        <mxCell id="JnQPjBFPK7aEnsTbQPbo-13" style="edgeStyle=orthogonalEdgeStyle;rounded=0;orthogonalLoop=1;jettySize=auto;html=1;strokeWidth=2;" edge="1" parent="1" source="JnQPjBFPK7aEnsTbQPbo-2" target="JnQPjBFPK7aEnsTbQPbo-7">
          <mxGeometry relative="1" as="geometry" />
        </mxCell>
        <mxCell id="JnQPjBFPK7aEnsTbQPbo-15" style="edgeStyle=orthogonalEdgeStyle;rounded=0;orthogonalLoop=1;jettySize=auto;html=1;entryX=0;entryY=0.5;entryDx=0;entryDy=0;strokeWidth=2;" edge="1" parent="1" target="JnQPjBFPK7aEnsTbQPbo-3">
          <mxGeometry relative="1" as="geometry">
            <mxPoint x="80" y="230" as="sourcePoint" />
            <Array as="points">
              <mxPoint x="80" y="115" />
            </Array>
          </mxGeometry>
        </mxCell>
        <mxCell id="JnQPjBFPK7aEnsTbQPbo-37" style="edgeStyle=orthogonalEdgeStyle;rounded=0;orthogonalLoop=1;jettySize=auto;html=1;entryX=0;entryY=0.5;entryDx=0;entryDy=0;strokeWidth=2;" edge="1" parent="1" target="JnQPjBFPK7aEnsTbQPbo-4">
          <mxGeometry relative="1" as="geometry">
            <mxPoint x="110" y="280" as="sourcePoint" />
          </mxGeometry>
        </mxCell>
        <mxCell id="JnQPjBFPK7aEnsTbQPbo-2" value="&lt;font color=&quot;#000000&quot;&gt;Користувач&lt;/font&gt;" style="shape=umlActor;verticalLabelPosition=bottom;verticalAlign=top;html=1;outlineConnect=0;fillColor=#0050ef;strokeColor=#001DBC;strokeWidth=2;fontColor=#ffffff;" vertex="1" parent="1">
          <mxGeometry x="50" y="250" width="50" height="90" as="geometry" />
        </mxCell>
        <mxCell id="JnQPjBFPK7aEnsTbQPbo-39" style="edgeStyle=orthogonalEdgeStyle;rounded=0;orthogonalLoop=1;jettySize=auto;html=1;entryX=0;entryY=0.5;entryDx=0;entryDy=0;strokeWidth=2;" edge="1" parent="1" source="JnQPjBFPK7aEnsTbQPbo-2" target="JnQPjBFPK7aEnsTbQPbo-5">
          <mxGeometry relative="1" as="geometry">
            <mxPoint x="110" y="305" as="sourcePoint" />
            <mxPoint x="390" y="305" as="targetPoint" />
            <Array as="points">
              <mxPoint x="110" y="330" />
              <mxPoint x="110" y="355" />
            </Array>
          </mxGeometry>
        </mxCell>
        <mxCell id="JnQPjBFPK7aEnsTbQPbo-40" style="edgeStyle=orthogonalEdgeStyle;rounded=0;orthogonalLoop=1;jettySize=auto;html=1;entryX=0.005;entryY=0.629;entryDx=0;entryDy=0;entryPerimeter=0;strokeWidth=2;" edge="1" parent="1" target="JnQPjBFPK7aEnsTbQPbo-6">
          <mxGeometry relative="1" as="geometry">
            <mxPoint x="80" y="370" as="sourcePoint" />
            <Array as="points">
              <mxPoint x="80" y="474" />
            </Array>
          </mxGeometry>
        </mxCell>
        <mxCell id="JnQPjBFPK7aEnsTbQPbo-47" value="Сервіс сплати" style="shape=umlActor;verticalLabelPosition=bottom;verticalAlign=top;html=1;outlineConnect=0;fillColor=#e3c800;strokeColor=#B09500;strokeWidth=2;fontColor=#000000;" vertex="1" parent="1">
          <mxGeometry x="720" y="475" width="50" height="85" as="geometry" />
        </mxCell>
        <mxCell id="JnQPjBFPK7aEnsTbQPbo-56" style="edgeStyle=orthogonalEdgeStyle;rounded=0;orthogonalLoop=1;jettySize=auto;html=1;" edge="1" parent="1" source="JnQPjBFPK7aEnsTbQPbo-48" target="JnQPjBFPK7aEnsTbQPbo-41">
          <mxGeometry relative="1" as="geometry" />
        </mxCell>
        <mxCell id="JnQPjBFPK7aEnsTbQPbo-48" value="Постачальник&lt;br&gt;обладнання" style="shape=umlActor;verticalLabelPosition=bottom;verticalAlign=top;html=1;outlineConnect=0;fillColor=#fa6800;strokeColor=#C73500;strokeWidth=2;fontColor=#000000;" vertex="1" parent="1">
          <mxGeometry x="720" y="630" width="50" height="90" as="geometry" />
        </mxCell>
        <mxCell id="JnQPjBFPK7aEnsTbQPbo-51" style="edgeStyle=orthogonalEdgeStyle;rounded=0;orthogonalLoop=1;jettySize=auto;html=1;entryX=1.058;entryY=0.438;entryDx=0;entryDy=0;entryPerimeter=0;" edge="1" parent="1" source="JnQPjBFPK7aEnsTbQPbo-47" target="JnQPjBFPK7aEnsTbQPbo-50">
          <mxGeometry relative="1" as="geometry" />
        </mxCell>
        <mxCell id="JnQPjBFPK7aEnsTbQPbo-57" style="edgeStyle=orthogonalEdgeStyle;rounded=0;orthogonalLoop=1;jettySize=auto;html=1;" edge="1" parent="1" source="JnQPjBFPK7aEnsTbQPbo-12" target="JnQPjBFPK7aEnsTbQPbo-48">
          <mxGeometry relative="1" as="geometry" />
        </mxCell>
        <mxCell id="JnQPjBFPK7aEnsTbQPbo-58" style="edgeStyle=orthogonalEdgeStyle;rounded=0;orthogonalLoop=1;jettySize=auto;html=1;" edge="1" parent="1" source="JnQPjBFPK7aEnsTbQPbo-41">
          <mxGeometry relative="1" as="geometry">
            <mxPoint x="70" y="370" as="targetPoint" />
          </mxGeometry>
        </mxCell>
      </root>
    </mxGraphModel>
  </diagram>
</mxfile>
